# xmcd
# 
# Track frame offsets:
#     150
#     26822
#     42413
#     60556
#     77717
#     90707
#     103844
#     125195
#     142979
#     162403
#     179831
#     199555
#     213129
#     230207
#     247610
#     270187
#     283524
#     295378
# 
# Disc length: 4092
# 
# Revision: 1
# Processed by: cddbd v1.5.2PL0 Copyright (c) Steve Scherf et al.
# Submitted via: fre:ac v1.0.27
# 
DISCID=0a0ffa12
DTITLE=Paul Reddick - Reddick Revue
DYEAR=2007
DGENRE=Blues Rock
TTITLE0=I'm a Criminal
TTITLE1=2nd Street
TTITLE2=Template Blues
TTITLE3=Villanelle
TTITLE4=Big Not Small
TTITLE5=Smokehouse
TTITLE6=Am I Right Or Wrong?
TTITLE7=Rattlebag
TTITLE8=Train Of Love
TTITLE9=Queens Hotel
TTITLE10='Round this Time Of year
TTITLE11=Trouble Again
TTITLE12=Winter Birds
TTITLE13=Waitin'
TTITLE14=Hook's in the Water
TTITLE15=Rose Mary
TTITLE16=You Know It Ain't Right
TTITLE17=The Sidemen Boogie
EXTD=
EXTT0=
EXTT1=
EXTT2=
EXTT3=
EXTT4=
EXTT5=
EXTT6=
EXTT7=
EXTT8=
EXTT9=
EXTT10=
EXTT11=
EXTT12=
EXTT13=
EXTT14=
EXTT15=
EXTT16=
EXTT17=
PLAYORDER=
